<mxfile host="Electron" modified="2025-03-19T11:24:50.542Z" agent="Mozilla/5.0 (Windows NT 10.0; Win64; x64) AppleWebKit/537.36 (KHTML, like Gecko) draw.io/22.0.3 Chrome/114.0.5735.289 Electron/25.8.4 Safari/537.36" etag="8VsBgLPDS9Jg7X8PnJQ0" version="22.0.3" type="device">
  <diagram name="Página-1" id="D_oYp7YFY8a_a5B_dFeF">
    <mxGraphModel dx="1293" dy="1283" grid="1" gridSize="10" guides="1" tooltips="1" connect="1" arrows="1" fold="1" page="1" pageScale="1" pageWidth="827" pageHeight="1169" math="0" shadow="0">
      <root>
        <mxCell id="0" />
        <mxCell id="1" parent="0" />
        <mxCell id="0pynkcndntX9hv0KAbxj-1" value="&lt;b&gt;&lt;font style=&quot;font-size: 24px;&quot;&gt;Livrólatra (Clube do Livro)&lt;/font&gt;&lt;/b&gt;" style="text;html=1;strokeColor=none;fillColor=none;align=center;verticalAlign=middle;whiteSpace=wrap;rounded=0;" parent="1" vertex="1">
          <mxGeometry x="64" y="10" width="190" height="100" as="geometry" />
        </mxCell>
        <mxCell id="0pynkcndntX9hv0KAbxj-5" value="&lt;span style=&quot;font-size: 16px;&quot;&gt;ID (P.K.)&lt;/span&gt;" style="ellipse;whiteSpace=wrap;html=1;strokeColor=default;strokeWidth=2;fillColor=none;" parent="1" vertex="1">
          <mxGeometry x="45" y="430" width="120" height="80" as="geometry" />
        </mxCell>
        <mxCell id="0pynkcndntX9hv0KAbxj-6" value="&lt;span style=&quot;font-size: 16px;&quot;&gt;Nome&lt;/span&gt;" style="ellipse;whiteSpace=wrap;html=1;strokeColor=default;strokeWidth=2;fillColor=none;" parent="1" vertex="1">
          <mxGeometry x="55" y="530" width="120" height="80" as="geometry" />
        </mxCell>
        <mxCell id="0pynkcndntX9hv0KAbxj-7" value="&lt;span style=&quot;font-size: 16px;&quot;&gt;Data Nascimento&lt;br&gt;&lt;/span&gt;" style="ellipse;whiteSpace=wrap;html=1;strokeColor=default;strokeWidth=2;fillColor=none;" parent="1" vertex="1">
          <mxGeometry x="485" y="504.5" width="120" height="80" as="geometry" />
        </mxCell>
        <mxCell id="0pynkcndntX9hv0KAbxj-8" value="&lt;span style=&quot;font-size: 16px;&quot;&gt;E-mail&lt;/span&gt;" style="ellipse;whiteSpace=wrap;html=1;strokeColor=default;strokeWidth=2;fillColor=none;" parent="1" vertex="1">
          <mxGeometry x="130" y="610" width="120" height="80" as="geometry" />
        </mxCell>
        <mxCell id="0pynkcndntX9hv0KAbxj-9" value="&lt;span style=&quot;font-size: 16px;&quot;&gt;Redes Sociais&lt;/span&gt;" style="ellipse;whiteSpace=wrap;html=1;strokeColor=default;strokeWidth=2;fillColor=none;" parent="1" vertex="1">
          <mxGeometry x="260" y="655" width="120" height="80" as="geometry" />
        </mxCell>
        <mxCell id="0pynkcndntX9hv0KAbxj-10" value="&lt;span style=&quot;font-size: 16px;&quot;&gt;Senha Login&lt;/span&gt;" style="ellipse;whiteSpace=wrap;html=1;strokeColor=default;strokeWidth=2;fillColor=none;" parent="1" vertex="1">
          <mxGeometry x="389" y="585" width="120" height="80" as="geometry" />
        </mxCell>
        <mxCell id="0pynkcndntX9hv0KAbxj-11" value="&lt;span style=&quot;font-size: 16px;&quot;&gt;Idade&lt;br&gt;&lt;/span&gt;" style="ellipse;whiteSpace=wrap;html=1;strokeColor=default;strokeWidth=2;fillColor=none;dashed=1;" parent="1" vertex="1">
          <mxGeometry x="635" y="575" width="120" height="80" as="geometry" />
        </mxCell>
        <mxCell id="0pynkcndntX9hv0KAbxj-12" value="&lt;span style=&quot;font-size: 16px;&quot;&gt;Instagram&lt;br&gt;&lt;/span&gt;" style="ellipse;whiteSpace=wrap;html=1;strokeColor=default;strokeWidth=2;fillColor=none;" parent="1" vertex="1">
          <mxGeometry x="165" y="770" width="100" height="50" as="geometry" />
        </mxCell>
        <mxCell id="0pynkcndntX9hv0KAbxj-17" value="&lt;span style=&quot;font-size: 16px;&quot;&gt;Facebook&lt;br&gt;&lt;/span&gt;" style="ellipse;whiteSpace=wrap;html=1;strokeColor=default;strokeWidth=2;fillColor=none;" parent="1" vertex="1">
          <mxGeometry x="270" y="820" width="100" height="50" as="geometry" />
        </mxCell>
        <mxCell id="0pynkcndntX9hv0KAbxj-18" value="&lt;span style=&quot;font-size: 16px;&quot;&gt;Outras&lt;br&gt;&lt;/span&gt;" style="ellipse;whiteSpace=wrap;html=1;strokeColor=default;strokeWidth=2;fillColor=none;" parent="1" vertex="1">
          <mxGeometry x="485" y="675" width="100" height="50" as="geometry" />
        </mxCell>
        <mxCell id="0pynkcndntX9hv0KAbxj-19" value="&lt;span style=&quot;font-size: 16px;&quot;&gt;Linkedn&lt;br&gt;&lt;/span&gt;" style="ellipse;whiteSpace=wrap;html=1;strokeColor=default;strokeWidth=2;fillColor=none;" parent="1" vertex="1">
          <mxGeometry x="410" y="800" width="100" height="50" as="geometry" />
        </mxCell>
        <mxCell id="0pynkcndntX9hv0KAbxj-20" value="&lt;span style=&quot;font-size: 16px;&quot;&gt;X&lt;br&gt;&lt;/span&gt;" style="ellipse;whiteSpace=wrap;html=1;strokeColor=default;strokeWidth=2;fillColor=none;" parent="1" vertex="1">
          <mxGeometry x="509" y="750" width="100" height="50" as="geometry" />
        </mxCell>
        <mxCell id="IXmIICaTYyOZwb3j-QIF-14" value="&lt;b&gt;&lt;font style=&quot;font-size: 16px;&quot;&gt;Leitor&lt;/font&gt;&lt;/b&gt;" style="rounded=0;whiteSpace=wrap;html=1;fillColor=none;strokeWidth=2;" parent="1" vertex="1">
          <mxGeometry x="215" y="285" width="120" height="60" as="geometry" />
        </mxCell>
        <mxCell id="IXmIICaTYyOZwb3j-QIF-15" value="&lt;b&gt;&lt;font style=&quot;font-size: 16px;&quot;&gt;Livros&lt;/font&gt;&lt;/b&gt;" style="rounded=0;whiteSpace=wrap;html=1;fillColor=none;strokeWidth=2;" parent="1" vertex="1">
          <mxGeometry x="1178" y="235" width="120" height="60" as="geometry" />
        </mxCell>
        <mxCell id="IXmIICaTYyOZwb3j-QIF-17" value="&lt;span style=&quot;font-size: 16px;&quot;&gt;ID (P.K.)&lt;/span&gt;" style="ellipse;whiteSpace=wrap;html=1;strokeColor=default;strokeWidth=2;fillColor=none;" parent="1" vertex="1">
          <mxGeometry x="896" y="385" width="120" height="80" as="geometry" />
        </mxCell>
        <mxCell id="IXmIICaTYyOZwb3j-QIF-18" value="&lt;span style=&quot;font-size: 16px;&quot;&gt;Título&lt;/span&gt;" style="ellipse;whiteSpace=wrap;html=1;strokeColor=default;strokeWidth=2;fillColor=none;" parent="1" vertex="1">
          <mxGeometry x="960" y="515" width="120" height="80" as="geometry" />
        </mxCell>
        <mxCell id="IXmIICaTYyOZwb3j-QIF-19" value="&lt;span style=&quot;font-size: 16px;&quot;&gt;Autor&lt;/span&gt;" style="ellipse;whiteSpace=wrap;html=1;strokeColor=default;strokeWidth=2;fillColor=none;" parent="1" vertex="1">
          <mxGeometry x="1178" y="655" width="120" height="80" as="geometry" />
        </mxCell>
        <mxCell id="IXmIICaTYyOZwb3j-QIF-20" value="&lt;span style=&quot;font-size: 16px;&quot;&gt;Ano&lt;/span&gt;" style="ellipse;whiteSpace=wrap;html=1;strokeColor=default;strokeWidth=2;fillColor=none;" parent="1" vertex="1">
          <mxGeometry x="1300" y="595" width="120" height="80" as="geometry" />
        </mxCell>
        <mxCell id="IXmIICaTYyOZwb3j-QIF-21" value="&lt;span style=&quot;font-size: 16px;&quot;&gt;Editora&lt;/span&gt;" style="ellipse;whiteSpace=wrap;html=1;strokeColor=default;strokeWidth=2;fillColor=none;" parent="1" vertex="1">
          <mxGeometry x="1406" y="490" width="120" height="80" as="geometry" />
        </mxCell>
        <mxCell id="IXmIICaTYyOZwb3j-QIF-22" value="&lt;span style=&quot;font-size: 16px;&quot;&gt;Sinopse&lt;/span&gt;" style="ellipse;whiteSpace=wrap;html=1;strokeColor=default;strokeWidth=2;fillColor=none;" parent="1" vertex="1">
          <mxGeometry x="1460" y="380" width="120" height="80" as="geometry" />
        </mxCell>
        <mxCell id="IXmIICaTYyOZwb3j-QIF-55" value="&lt;span style=&quot;font-size: 16px;&quot;&gt;Análises&lt;br&gt;Críticas&lt;br&gt;Resenhas&lt;/span&gt;" style="ellipse;whiteSpace=wrap;html=1;strokeColor=default;strokeWidth=2;fillColor=none;" parent="1" vertex="1">
          <mxGeometry x="485" y="285" width="120" height="70" as="geometry" />
        </mxCell>
        <mxCell id="IXmIICaTYyOZwb3j-QIF-57" value="&lt;span style=&quot;font-size: 16px;&quot;&gt;Lista Livros&lt;/span&gt;" style="ellipse;whiteSpace=wrap;html=1;strokeColor=default;strokeWidth=2;fillColor=none;" parent="1" vertex="1">
          <mxGeometry x="499" y="385" width="120" height="80" as="geometry" />
        </mxCell>
        <mxCell id="IXmIICaTYyOZwb3j-QIF-60" value="&lt;span style=&quot;font-size: 16px;&quot;&gt;Gênero&lt;/span&gt;" style="ellipse;whiteSpace=wrap;html=1;strokeColor=default;strokeWidth=2;fillColor=none;" parent="1" vertex="1">
          <mxGeometry x="1050" y="595" width="120" height="80" as="geometry" />
        </mxCell>
        <mxCell id="jxz7ZDE6LvCJPyyybYX1-21" value="&lt;span style=&quot;font-size: 16px;&quot;&gt;Edição&lt;/span&gt;" style="ellipse;whiteSpace=wrap;html=1;strokeColor=default;strokeWidth=2;fillColor=none;" parent="1" vertex="1">
          <mxGeometry x="1460" y="270" width="120" height="80" as="geometry" />
        </mxCell>
        <mxCell id="jxz7ZDE6LvCJPyyybYX1-27" value="&lt;span style=&quot;font-size: 16px;&quot;&gt;Lidos&lt;br&gt;&lt;/span&gt;" style="ellipse;whiteSpace=wrap;html=1;strokeColor=default;strokeWidth=2;fillColor=none;" parent="1" vertex="1">
          <mxGeometry x="660" y="335" width="100" height="50" as="geometry" />
        </mxCell>
        <mxCell id="jxz7ZDE6LvCJPyyybYX1-28" value="&lt;span style=&quot;font-size: 16px;&quot;&gt;Desejo&lt;br&gt;&lt;/span&gt;" style="ellipse;whiteSpace=wrap;html=1;strokeColor=default;strokeWidth=2;fillColor=none;" parent="1" vertex="1">
          <mxGeometry x="683" y="400" width="100" height="50" as="geometry" />
        </mxCell>
        <mxCell id="jxz7ZDE6LvCJPyyybYX1-29" value="&lt;u style=&quot;&quot;&gt;&lt;font style=&quot;font-size: 14px;&quot;&gt;Personalisada&lt;/font&gt;&lt;/u&gt;" style="ellipse;whiteSpace=wrap;html=1;strokeColor=default;strokeWidth=2;fillColor=none;" parent="1" vertex="1">
          <mxGeometry x="655" y="465" width="100" height="50" as="geometry" />
        </mxCell>
        <mxCell id="Kj5mGwT2nlYilsizSxGH-1" value="" style="endArrow=classic;html=1;rounded=0;" edge="1" parent="1" source="IXmIICaTYyOZwb3j-QIF-15" target="IXmIICaTYyOZwb3j-QIF-17">
          <mxGeometry width="50" height="50" relative="1" as="geometry">
            <mxPoint x="1176" y="645" as="sourcePoint" />
            <mxPoint x="1226" y="595" as="targetPoint" />
          </mxGeometry>
        </mxCell>
        <mxCell id="Kj5mGwT2nlYilsizSxGH-2" value="" style="endArrow=classic;html=1;rounded=0;" edge="1" parent="1" source="IXmIICaTYyOZwb3j-QIF-15" target="IXmIICaTYyOZwb3j-QIF-18">
          <mxGeometry width="50" height="50" relative="1" as="geometry">
            <mxPoint x="1195" y="305" as="sourcePoint" />
            <mxPoint x="1012" y="409" as="targetPoint" />
          </mxGeometry>
        </mxCell>
        <mxCell id="Kj5mGwT2nlYilsizSxGH-3" value="" style="endArrow=classic;html=1;rounded=0;" edge="1" parent="1" source="IXmIICaTYyOZwb3j-QIF-15" target="IXmIICaTYyOZwb3j-QIF-60">
          <mxGeometry width="50" height="50" relative="1" as="geometry">
            <mxPoint x="1205" y="315" as="sourcePoint" />
            <mxPoint x="1022" y="419" as="targetPoint" />
          </mxGeometry>
        </mxCell>
        <mxCell id="Kj5mGwT2nlYilsizSxGH-4" value="" style="endArrow=classic;html=1;rounded=0;" edge="1" parent="1" source="IXmIICaTYyOZwb3j-QIF-15" target="IXmIICaTYyOZwb3j-QIF-19">
          <mxGeometry width="50" height="50" relative="1" as="geometry">
            <mxPoint x="1215" y="325" as="sourcePoint" />
            <mxPoint x="1032" y="429" as="targetPoint" />
          </mxGeometry>
        </mxCell>
        <mxCell id="Kj5mGwT2nlYilsizSxGH-5" value="" style="endArrow=classic;html=1;rounded=0;" edge="1" parent="1" source="IXmIICaTYyOZwb3j-QIF-15" target="IXmIICaTYyOZwb3j-QIF-20">
          <mxGeometry width="50" height="50" relative="1" as="geometry">
            <mxPoint x="1225" y="335" as="sourcePoint" />
            <mxPoint x="1042" y="439" as="targetPoint" />
          </mxGeometry>
        </mxCell>
        <mxCell id="Kj5mGwT2nlYilsizSxGH-6" value="" style="endArrow=classic;html=1;rounded=0;" edge="1" parent="1" source="IXmIICaTYyOZwb3j-QIF-15" target="IXmIICaTYyOZwb3j-QIF-21">
          <mxGeometry width="50" height="50" relative="1" as="geometry">
            <mxPoint x="1235" y="345" as="sourcePoint" />
            <mxPoint x="1052" y="449" as="targetPoint" />
          </mxGeometry>
        </mxCell>
        <mxCell id="Kj5mGwT2nlYilsizSxGH-7" value="" style="endArrow=classic;html=1;rounded=0;" edge="1" parent="1" source="IXmIICaTYyOZwb3j-QIF-15" target="IXmIICaTYyOZwb3j-QIF-22">
          <mxGeometry width="50" height="50" relative="1" as="geometry">
            <mxPoint x="1245" y="355" as="sourcePoint" />
            <mxPoint x="1062" y="459" as="targetPoint" />
          </mxGeometry>
        </mxCell>
        <mxCell id="Kj5mGwT2nlYilsizSxGH-8" value="" style="endArrow=classic;html=1;rounded=0;" edge="1" parent="1" source="IXmIICaTYyOZwb3j-QIF-15" target="jxz7ZDE6LvCJPyyybYX1-21">
          <mxGeometry width="50" height="50" relative="1" as="geometry">
            <mxPoint x="1255" y="365" as="sourcePoint" />
            <mxPoint x="1072" y="469" as="targetPoint" />
          </mxGeometry>
        </mxCell>
        <mxCell id="Kj5mGwT2nlYilsizSxGH-9" value="" style="endArrow=classic;html=1;rounded=0;" edge="1" parent="1" source="0pynkcndntX9hv0KAbxj-9" target="0pynkcndntX9hv0KAbxj-12">
          <mxGeometry width="50" height="50" relative="1" as="geometry">
            <mxPoint x="540" y="905" as="sourcePoint" />
            <mxPoint x="357" y="1009" as="targetPoint" />
          </mxGeometry>
        </mxCell>
        <mxCell id="Kj5mGwT2nlYilsizSxGH-10" value="" style="endArrow=classic;html=1;rounded=0;" edge="1" parent="1" source="0pynkcndntX9hv0KAbxj-9" target="0pynkcndntX9hv0KAbxj-17">
          <mxGeometry width="50" height="50" relative="1" as="geometry">
            <mxPoint x="550" y="915" as="sourcePoint" />
            <mxPoint x="367" y="1019" as="targetPoint" />
          </mxGeometry>
        </mxCell>
        <mxCell id="Kj5mGwT2nlYilsizSxGH-11" value="" style="endArrow=classic;html=1;rounded=0;" edge="1" parent="1" source="0pynkcndntX9hv0KAbxj-9" target="0pynkcndntX9hv0KAbxj-19">
          <mxGeometry width="50" height="50" relative="1" as="geometry">
            <mxPoint x="560" y="925" as="sourcePoint" />
            <mxPoint x="377" y="1029" as="targetPoint" />
          </mxGeometry>
        </mxCell>
        <mxCell id="Kj5mGwT2nlYilsizSxGH-12" value="" style="endArrow=classic;html=1;rounded=0;" edge="1" parent="1" source="0pynkcndntX9hv0KAbxj-9" target="0pynkcndntX9hv0KAbxj-20">
          <mxGeometry width="50" height="50" relative="1" as="geometry">
            <mxPoint x="570" y="935" as="sourcePoint" />
            <mxPoint x="387" y="1039" as="targetPoint" />
          </mxGeometry>
        </mxCell>
        <mxCell id="Kj5mGwT2nlYilsizSxGH-13" value="" style="endArrow=classic;html=1;rounded=0;" edge="1" parent="1" source="0pynkcndntX9hv0KAbxj-9" target="0pynkcndntX9hv0KAbxj-18">
          <mxGeometry width="50" height="50" relative="1" as="geometry">
            <mxPoint x="580" y="945" as="sourcePoint" />
            <mxPoint x="397" y="1049" as="targetPoint" />
          </mxGeometry>
        </mxCell>
        <mxCell id="Kj5mGwT2nlYilsizSxGH-14" value="" style="endArrow=classic;html=1;rounded=0;" edge="1" parent="1" source="0pynkcndntX9hv0KAbxj-7" target="0pynkcndntX9hv0KAbxj-11">
          <mxGeometry width="50" height="50" relative="1" as="geometry">
            <mxPoint x="575" y="945" as="sourcePoint" />
            <mxPoint x="690" y="705" as="targetPoint" />
          </mxGeometry>
        </mxCell>
        <mxCell id="Kj5mGwT2nlYilsizSxGH-15" value="" style="endArrow=classic;html=1;rounded=0;" edge="1" parent="1" source="IXmIICaTYyOZwb3j-QIF-57" target="jxz7ZDE6LvCJPyyybYX1-27">
          <mxGeometry width="50" height="50" relative="1" as="geometry">
            <mxPoint x="585" y="955" as="sourcePoint" />
            <mxPoint x="402" y="1059" as="targetPoint" />
          </mxGeometry>
        </mxCell>
        <mxCell id="Kj5mGwT2nlYilsizSxGH-16" value="" style="endArrow=classic;html=1;rounded=0;" edge="1" parent="1" source="IXmIICaTYyOZwb3j-QIF-57" target="jxz7ZDE6LvCJPyyybYX1-28">
          <mxGeometry width="50" height="50" relative="1" as="geometry">
            <mxPoint x="595" y="965" as="sourcePoint" />
            <mxPoint x="412" y="1069" as="targetPoint" />
          </mxGeometry>
        </mxCell>
        <mxCell id="Kj5mGwT2nlYilsizSxGH-17" value="" style="endArrow=classic;html=1;rounded=0;" edge="1" parent="1" source="IXmIICaTYyOZwb3j-QIF-57" target="jxz7ZDE6LvCJPyyybYX1-29">
          <mxGeometry width="50" height="50" relative="1" as="geometry">
            <mxPoint x="605" y="975" as="sourcePoint" />
            <mxPoint x="422" y="1079" as="targetPoint" />
          </mxGeometry>
        </mxCell>
        <mxCell id="Kj5mGwT2nlYilsizSxGH-18" value="" style="endArrow=classic;html=1;rounded=0;" edge="1" parent="1" source="IXmIICaTYyOZwb3j-QIF-14" target="0pynkcndntX9hv0KAbxj-5">
          <mxGeometry width="50" height="50" relative="1" as="geometry">
            <mxPoint x="615" y="985" as="sourcePoint" />
            <mxPoint x="432" y="1089" as="targetPoint" />
          </mxGeometry>
        </mxCell>
        <mxCell id="Kj5mGwT2nlYilsizSxGH-19" value="" style="endArrow=classic;html=1;rounded=0;" edge="1" parent="1" source="IXmIICaTYyOZwb3j-QIF-14" target="0pynkcndntX9hv0KAbxj-6">
          <mxGeometry width="50" height="50" relative="1" as="geometry">
            <mxPoint x="625" y="995" as="sourcePoint" />
            <mxPoint x="442" y="1099" as="targetPoint" />
          </mxGeometry>
        </mxCell>
        <mxCell id="Kj5mGwT2nlYilsizSxGH-20" value="" style="endArrow=classic;html=1;rounded=0;" edge="1" parent="1" source="IXmIICaTYyOZwb3j-QIF-14" target="0pynkcndntX9hv0KAbxj-8">
          <mxGeometry width="50" height="50" relative="1" as="geometry">
            <mxPoint x="635" y="1005" as="sourcePoint" />
            <mxPoint x="452" y="1109" as="targetPoint" />
          </mxGeometry>
        </mxCell>
        <mxCell id="Kj5mGwT2nlYilsizSxGH-21" value="" style="endArrow=classic;html=1;rounded=0;" edge="1" parent="1" source="IXmIICaTYyOZwb3j-QIF-14" target="0pynkcndntX9hv0KAbxj-9">
          <mxGeometry width="50" height="50" relative="1" as="geometry">
            <mxPoint x="645" y="1015" as="sourcePoint" />
            <mxPoint x="462" y="1119" as="targetPoint" />
          </mxGeometry>
        </mxCell>
        <mxCell id="Kj5mGwT2nlYilsizSxGH-22" value="" style="endArrow=classic;html=1;rounded=0;" edge="1" parent="1" source="IXmIICaTYyOZwb3j-QIF-14" target="0pynkcndntX9hv0KAbxj-10">
          <mxGeometry width="50" height="50" relative="1" as="geometry">
            <mxPoint x="655" y="1025" as="sourcePoint" />
            <mxPoint x="472" y="1129" as="targetPoint" />
          </mxGeometry>
        </mxCell>
        <mxCell id="Kj5mGwT2nlYilsizSxGH-23" value="" style="endArrow=classic;html=1;rounded=0;" edge="1" parent="1" source="IXmIICaTYyOZwb3j-QIF-14" target="0pynkcndntX9hv0KAbxj-7">
          <mxGeometry width="50" height="50" relative="1" as="geometry">
            <mxPoint x="665" y="1035" as="sourcePoint" />
            <mxPoint x="482" y="1139" as="targetPoint" />
          </mxGeometry>
        </mxCell>
        <mxCell id="Kj5mGwT2nlYilsizSxGH-24" value="" style="endArrow=classic;html=1;rounded=0;" edge="1" parent="1" source="IXmIICaTYyOZwb3j-QIF-14" target="IXmIICaTYyOZwb3j-QIF-57">
          <mxGeometry width="50" height="50" relative="1" as="geometry">
            <mxPoint x="675" y="1045" as="sourcePoint" />
            <mxPoint x="492" y="1149" as="targetPoint" />
          </mxGeometry>
        </mxCell>
        <mxCell id="Kj5mGwT2nlYilsizSxGH-25" value="" style="endArrow=classic;html=1;rounded=0;" edge="1" parent="1" source="IXmIICaTYyOZwb3j-QIF-14" target="IXmIICaTYyOZwb3j-QIF-55">
          <mxGeometry width="50" height="50" relative="1" as="geometry">
            <mxPoint x="685" y="1055" as="sourcePoint" />
            <mxPoint x="502" y="1159" as="targetPoint" />
          </mxGeometry>
        </mxCell>
        <mxCell id="Kj5mGwT2nlYilsizSxGH-26" value="&lt;b&gt;&lt;font style=&quot;font-size: 16px;&quot;&gt;Lê&lt;/font&gt;&lt;/b&gt;" style="rhombus;whiteSpace=wrap;html=1;" vertex="1" parent="1">
          <mxGeometry x="790" y="60" width="80" height="80" as="geometry" />
        </mxCell>
        <mxCell id="Kj5mGwT2nlYilsizSxGH-28" value="" style="endArrow=none;html=1;rounded=0;" edge="1" parent="1" source="Kj5mGwT2nlYilsizSxGH-26" target="IXmIICaTYyOZwb3j-QIF-15">
          <mxGeometry width="50" height="50" relative="1" as="geometry">
            <mxPoint x="740" y="570" as="sourcePoint" />
            <mxPoint x="790" y="520" as="targetPoint" />
          </mxGeometry>
        </mxCell>
        <mxCell id="Kj5mGwT2nlYilsizSxGH-32" value="&lt;font style=&quot;font-size: 16px;&quot;&gt;M&lt;/font&gt;" style="edgeLabel;html=1;align=center;verticalAlign=middle;resizable=0;points=[];" vertex="1" connectable="0" parent="Kj5mGwT2nlYilsizSxGH-28">
          <mxGeometry x="0.0151" y="-5" relative="1" as="geometry">
            <mxPoint as="offset" />
          </mxGeometry>
        </mxCell>
        <mxCell id="Kj5mGwT2nlYilsizSxGH-30" value="" style="endArrow=none;html=1;rounded=0;" edge="1" parent="1" source="IXmIICaTYyOZwb3j-QIF-14" target="Kj5mGwT2nlYilsizSxGH-26">
          <mxGeometry width="50" height="50" relative="1" as="geometry">
            <mxPoint x="740" y="570" as="sourcePoint" />
            <mxPoint x="790" y="520" as="targetPoint" />
          </mxGeometry>
        </mxCell>
        <mxCell id="Kj5mGwT2nlYilsizSxGH-31" value="&lt;font style=&quot;font-size: 16px;&quot;&gt;N&lt;/font&gt;" style="edgeLabel;html=1;align=center;verticalAlign=middle;resizable=0;points=[];" vertex="1" connectable="0" parent="Kj5mGwT2nlYilsizSxGH-30">
          <mxGeometry x="-0.0766" relative="1" as="geometry">
            <mxPoint x="1" as="offset" />
          </mxGeometry>
        </mxCell>
      </root>
    </mxGraphModel>
  </diagram>
</mxfile>
